<?xml version="1.0" encoding="UTF-8"?>
<svg id="_Слой_1" data-name="Слой 1" xmlns="http://www.w3.org/2000/svg" viewBox="0 0 661.5 146.9">
  <defs>
    <style>
      .cls-1 {
        fill: #fff;
      }
    </style>
  </defs>
  <path class="cls-1" d="m356.8,1.4c-9.2,3-15.1,12.1-12.9,20,1.5,5.7,4.7,9.1,15,16.4,12.2,8.7,13.5,10.5,12.9,18.3-.4,5-.9,6.4-3.5,9-3.6,3.6-10.7,4.8-16.7,2.8q-3.6-1.2-3.6-7.1c0-3.2-.4-5.9-.9-5.9-1.1,0-5.3,12.8-4.6,14,1,1.7,11.2,3.2,18.1,2.8,9-.5,13.8-2.9,17-8.5,2.3-3.7,2.6-5.3,2.2-10.6-.5-8.1-2.5-10.9-13.2-18.6-11.2-8.1-15.6-13.1-15.6-17.7,0-7.6,5.1-12.4,13.3-12.4,6.6,0,8.2,1.7,8,8.4-.1,3.1.2,5.6.6,5.6.9,0,3.8-7,4.7-11.6.5-2.6.2-3.2-2.3-4.3-4.3-2-13.2-2.3-18.5-.6Z"/>
  <path class="cls-1" d="m474.5,2.7c-14.3,6.9-21.9,22.4-19.4,39.7,1.4,9.7,4.3,15.8,10.5,21.4,7,6.4,13,8.4,23.2,7.9,9.2-.4,15.1-2.9,21.3-9.1,6.5-6.4,9.2-13.4,9.7-24.4.8-16.4-4.9-28.8-15.9-34.8-4.6-2.5-6.7-3-14.4-3.3-8.3-.3-9.5-.1-15,2.6Zm20.3,1.8c11.4,4.7,18.3,19.7,16.9,36.7-.7,9.2-2.9,15.4-7.2,20.5-4.5,5.1-9,7.2-15.9,7.2-10.3,0-17.4-4.9-22.2-15.2-2.7-5.8-2.9-7.2-2.9-18.3,0-12.9,1.3-17.7,7-25.1,5.1-6.6,16-9.3,24.3-5.8Z"/>
  <path class="cls-1" d="m86.9,2.7c-3.2,1.6-4,3.1-14.3,29-6.1,14.9-11.3,26.9-11.8,26.4-.4-.4-6.2-12.9-12.8-27.7-6.7-14.9-12.6-27.4-13.1-28-1.2-1.2-9.8,1-11.9,3.1-1.2,1.2-1,1.4,2.3,1.4,4.6,0,4.6-2.1.4,34.3-1.8,15.3-3,28.1-2.7,28.5.9,1.2,12,1.5,12,.3,0-.6-.8-1.1-1.8-1.1s-2.6-.6-3.6-1.3c-1.7-1.3-1.7-2.4,1-27.1,2-18.7,3-25.3,3.7-24,3.2,5.7,21.8,48.2,22.3,50.9.6,3.3,3,5.3,4.4,3.8.4-.4,5.8-13.8,12.1-29.7,6.2-15.9,11.4-28.5,11.6-28,.5,1.7,5.3,50.9,5.3,54.5v3.6l5.8-.8c3.1-.5,6.5-.6,7.5-.3.9.3,1.7.1,1.7-.5s-.6-1.1-1.4-1.1-2.4-.8-3.6-1.8c-2.1-1.7-2.5-4-5.6-33.7-1.9-17.5-3.5-31.9-3.7-32.1s-1.9.4-3.8,1.4Z"/>
  <path class="cls-1" d="m393.6,1.6c-3.5.4-3.8.6-3.3,3.1.9,4.5,3.7,10.3,4.7,9.7.5-.3.6-2.1.3-4.1-.8-4.8.4-5.4,10.5-5.4h8.2v66h7.6c4.7,0,7.3-.4,6.9-1-.3-.6-1.2-1-2-1s-2.1-1-2.9-2.2c-1.4-1.9-1.6-6.7-1.6-32.1V4.8l9.3.3,9.2.3.5,5c.6,5.5.9,5.3,3.8-2.3,1.5-3.7,1.7-5.4.9-5.9-1.3-.8-46.1-1.3-52.1-.6Z"/>
  <path class="cls-1" d="m543,2.1c-9.3,1-11.9,2.2-7.1,3.3,1.7.4,3.6,1.5,4.1,2.6.7,1.2,1,13,.8,32.4l-.3,30.5h7.8c5,0,7.6-.4,7.2-1-.3-.6-1.2-1-1.9-1s-2-.8-3-1.8c-1.5-1.7-1.6-5-1.4-31.8.3-34-.6-31.2,9.6-29.9,7.1.9,10.2,3.7,10.2,9.5,0,8.6-4.3,13.8-13.3,16.1-2.6.6-4.7,1.3-4.7,1.6s20.7,29.7,26,36.9c1.4,1.9,1.9,1.9,8.5.9l7-1.2-4.5-2c-5.6-2.6-6.7-3.7-18.2-20.4l-9.5-13.5,5.4-2.9c7.9-4.1,10.8-8.4,10.8-15.8,0-5.3-.3-6.1-3.1-8.7-5.4-4.7-13.1-5.7-30.4-3.8Z"/>
  <path class="cls-1" d="m620,1.5c-1.9.2-7.2.7-11.7,1-4.6.3-8.3,1-8.3,1.5s.9.9,2,.9,2.9.9,4,2c1.9,1.9,2,3.3,2,31.8,0,21.8.3,30.1,1.2,31,1.7,1.7,33.2,1.7,34.5-.1,1.6-1.9,5.3-12.4,4.6-13-.3-.3-1.9,1.3-3.7,3.6-4,5.3-7.7,6.6-19.3,6.6l-9.3.1v-32h12c10.8,0,12-.2,13-1.9.5-1.1,1-2.2,1-2.5,0-.5-16.4.1-22.7.9l-3.3.4V4.9h25v5c0,2.7.4,5,.9,5,.8,0,5.6-11.9,4.9-12.5-.5-.6-23.1-1.3-26.8-.9Z"/>
  <path class="cls-1" d="m120,3.1l-3.5,1.1,3.4,1.1c2,.7,3.8,2.2,4.3,3.6.5,1.3.8,15.8.6,32.2l-.3,29.8h7.8c5,0,7.6-.4,7.2-1-.3-.6-1.2-1-2-1-.7,0-2.1-.7-2.9-1.6-1.4-1.3-1.6-5.5-1.6-30.3,0-15.9-.3-30.3-.6-32-.6-2.9-.9-3.1-4.8-3-2.2,0-5.7.5-7.6,1.1Z"/>
  <path class="cls-1" d="m153.3,2.6c-2.8.5-3,2.3-.4,2.3,1.1,0,2.7.7,3.5,1.6,1.4,1.3,1.6,5.6,1.6,31.4,0,16.4.3,30.5.6,31.4.5,1.2,2.1,1.6,7.5,1.6,7.3,0,9.3-1.4,3.3-2.3-6.6-1.1-6.4-.2-6.3-30.1,0-21.4.3-26.7,1.2-25.2,1.2,1.9,12.9,17.3,32.7,42.8,5.8,7.5,11.1,13.9,11.8,14.2.9.4,1.2-6.7,1.2-33.9V1.9h-3.9c-5.1,0-10.1,1-10.1,2.1,0,.5,1.5.9,3.4.9,6.5,0,6.6.4,6.6,27.8v24.7l-2.8-4.7c-1.5-2.5-10.8-15-20.7-27.7L164.5,1.9l-4.5.2c-2.5,0-5.5.3-6.7.5Z"/>
  <path class="cls-1" d="m230.2,2.9c-4.1.9-5.3,2-2.4,2,1.2,0,3.1.9,4.2,2,2,2,2,3.1,1.8,33l-.3,31h7.8c5,0,7.6-.4,7.2-1-.3-.6-1.2-1-1.9-1s-2-.8-2.9-1.8c-1.5-1.6-1.7-5.4-1.7-31.9,0-16.6-.3-30.8-.6-31.7-.7-1.7-5.4-2-11.2-.6Z"/>
  <path class="cls-1" d="m282.3,37c-6.6,1.9-3.3,2.9,9.5,2.9,13.9,0,17.2-.5,17.2-2.6,0-1.1-2.4-1.4-11.7-1.3-6.5,0-13.3.5-15,1Z"/>
  <path class="cls-1" d="m274.1,96.6l-2.3.5,2.1,1.4c2,1.4,2.1,2.4,2.1,18.7v17.2l3.5.1c3.2,0,3.4-.1,2-1.6-1.1-1.3-1.5-5.4-1.7-19-.3-18.8-.2-18.4-5.7-17.3Z"/>
  <path class="cls-1" d="m350.1,96.6l-2.3.5,2.1,1.4c2,1.4,2.1,2.4,2.1,18.7v17.2l3.6.1c3.1,0,3.4-.1,2-1.1-1.3-1-1.6-3.1-1.6-10.2,0-8.3.2-9,2.3-10.1,4.7-2.3,6.5-2.4,8.6-.3,1.8,1.8,2.1,3.4,2.1,11.8v9.8h3c3.2,0,4-.9,1.5-1.9-1.2-.4-1.5-2.5-1.5-10.1,0-8.2-.3-9.8-2-11.5-2.4-2.4-5.8-2.5-10.5-.6l-3.5,1.5v-6.4c0-3.5-.3-7-.6-7.9-.6-1.6-1-1.7-5.3-.9Z"/>
  <path class="cls-1" d="m428.1,100.2c-1.4.6-2.7,1.9-2.9,2.7-.4,1.2-.2,1.3.9.4,2.6-2.1,6.4-2.4,8.7-.8,4.2,2.9,1.7,9.5-4.3,11-3.7.9-3.1,2.4,1,2.4,6.2,0,9.2,5.3,6.4,11.4-1.3,2.8-6.4,5.6-10.3,5.6-1.4,0-2.6.4-2.6,1,0,1.3,3.1,1.3,8.6-.1,10.2-2.6,12.9-14,4.4-18.4l-3-1.6,2.4-2.2c3.9-3.4,4.3-7.1,1.2-10.1-2.8-2.9-6.6-3.3-10.5-1.3Z"/>
  <path class="cls-1" d="m224.6,100.8c-.3.5.3,1.1,1.4,1.4,1.9.5,2,1.4,2,16.1v15.6h18.7l1-3.5c1.3-4.1.8-4.4-1.9-1-1.7,2.2-2.7,2.5-7.9,2.5h-5.9v-14.9l6.2-.3c4.2-.2,6.3-.7,6.6-1.7.4-1.2-.7-1.3-6.2-.8l-6.6.6v-12.9h6.4c5.9,0,6.5.2,6.8,2.2s.5,1.9,1.5-1l1.2-3.2h-11.4c-6.3,0-11.6.4-11.9.9Z"/>
  <path class="cls-1" d="m406.5,100.8c-.3.5.5,1.1,1.7,1.3,2.3.3,2.3.6,2.6,14.8.2,13.6.1,14.5-1.8,16-1.9,1.4-1.6,1.5,4.1,1.5s5.9-.1,4-1.4c-2-1.3-2.1-2.2-2.1-17.2v-15.9h-3.9c-2.2,0-4.2.4-4.6.9Z"/>
  <path class="cls-1" d="m255.5,109.9c-2.4.6-2.7.8-1.2,1.4,1.5.7,1.7,2.3,1.7,12v11.2h3.5c3.6,0,4.6-1,2-2-1.1-.4-1.5-2.3-1.5-7.8,0-6.4.3-7.5,2.7-10,3.2-3.4,3.9-3.5,4.8-.6.6,2.2.7,2.2,1.5-.6.5-1.6.7-3.3.4-3.7-.6-1-5.3.7-7.6,2.8-1.7,1.5-1.8,1.4-1.8-.5,0-2.6-.8-3-4.5-2.2Z"/>
  <path class="cls-1" d="m289,109.9c-1.7.5-1.9.8-.7.9,2.6.1,2.1,1.1-2.7,6.1l-4.5,4.5,5.1,6.6c4.3,5.6,5.4,6.5,7.7,6.1l2.6-.4-4.2-4.4c-2.3-2.4-5-5.5-5.9-6.9-1.7-2.6-1.7-2.7,3-7.4,5.4-5.5,5.3-6.9-.4-5.1Z"/>
  <path class="cls-1" d="m307.5,110.3c-1.6.7-3.9,2.3-4.9,3.5-2.4,2.7-3.3,11-1.6,15.1,2.3,5.5,9.9,7.6,16,4.5,8.9-4.6,7.7-20.8-1.7-23.4-4.6-1.3-4.1-1.3-7.8.3Zm9.4,4.2c2.9,3.7,3,13.5.1,16.4-2.5,2.5-7.1,2.6-10.1.1-3-2.4-4-12.8-1.5-16.6,2.4-3.6,8.6-3.5,11.5.1Z"/>
  <path class="cls-1" d="m333.2,110.4c-6.3,2.7-5.5,8,1.8,12.8,5.2,3.3,6.5,5.3,5.4,8.1-.5,1.3-1.6,1.6-4.7,1.4-3.4-.2-4.2-.7-4.8-2.8l-.6-2.5-1.2,2.9c-.6,1.6-.9,3.1-.6,3.4.2.3,2.7.7,5.5,1,7,.6,10.2-1.5,9.8-6.6-.3-3.2-1-4.1-5.2-6.9-8.1-5.3-8.8-9.3-1.7-9.3,3.6,0,4,.3,4.3,2.7l.4,2.8.8-2.8c.5-1.6.5-3.2,0-3.6-1.8-1.7-6-1.9-9.2-.6Z"/>
  <path class="cls-1" d="m385.6,110.3c-4.5,1.7-7.6,4.3-3.6,3.1,8.5-2.5,12-1.4,12,3.5,0,2.5-.5,2.9-4.9,4-7.7,1.8-11.8,8.1-8.1,12.5,1.6,2,7.9,1.9,10.8-.1,1.8-1.2,2.2-1.3,2.2-.1,0,1,.9,1.2,3.3.9,1.7-.3,2.6-.7,2-.9-.9-.3-1.3-3.2-1.3-9.8,0-7.4-.4-9.7-1.7-11.3-2.4-2.9-6-3.4-10.7-1.8Zm8.4,15.5c0,3-.5,4.2-2.5,5.5-3.3,2.2-6.2,2-7.5-.5-2-3.6,2.8-8.6,8.3-8.8,1.3-.1,1.7.7,1.7,3.8Z"/>
  <path class="cls-1" d="m580.4,139.6c-67.2.3-75.3.5-75.8,1.9-.3.8-.1,2.4.4,3.5,1.1,1.9,2.9,1.9,78.8,1.7l77.7-.3v-3.5c0-3.2-.2-3.5-3-3.5-1.6,0-36.8.1-78.1.2Z"/>
  <path class="cls-1" d="m0,143.4v3.5l83.3-.2,83.2-.3.3-3.3.3-3.2H0v3.5Z"/>
</svg>