<?xml version="1.0" standalone="no"?>
<!DOCTYPE svg PUBLIC "-//W3C//DTD SVG 20010904//EN"
 "http://www.w3.org/TR/2001/REC-SVG-20010904/DTD/svg10.dtd">
<svg version="1.0" xmlns="http://www.w3.org/2000/svg"
 width="669.000000pt" height="224.000000pt" viewBox="0 0 669.000000 224.000000"
 preserveAspectRatio="xMidYMid meet">

<g transform="translate(0.000000,224.000000) scale(0.100000,-0.100000)"
fill="#000000" stroke="none">
<path d="M3568 1925 c-92 -30 -151 -121 -129 -200 15 -57 47 -91 150 -164 122
-87 135 -105 129 -183 -4 -50 -9 -64 -35 -90 -36 -36 -107 -48 -167 -28 -36
12 -36 12 -36 71 0 32 -4 59 -9 59 -11 0 -53 -128 -46 -140 10 -17 112 -32
181 -28 90 5 138 29 170 85 23 37 26 53 22 106 -5 81 -25 109 -132 186 -112
81 -156 131 -156 177 0 76 51 124 133 124 66 0 82 -17 80 -84 -1 -31 2 -56 6
-56 9 0 38 70 47 116 5 26 2 32 -23 43 -43 20 -132 23 -185 6z"/>
<path d="M4745 1912 c-143 -69 -219 -224 -194 -397 14 -97 43 -158 105 -214
70 -64 130 -84 232 -79 92 4 151 29 213 91 65 64 92 134 97 244 8 164 -49 288
-159 348 -46 25 -67 30 -144 33 -83 3 -95 1 -150 -26z m203 -18 c114 -47 183
-197 169 -367 -7 -92 -29 -154 -72 -205 -45 -51 -90 -72 -159 -72 -103 0 -174
49 -222 152 -27 58 -29 72 -29 183 0 129 13 177 70 251 51 66 160 93 243 58z"/>
<path d="M869 1912 c-32 -16 -40 -31 -143 -290 -61 -149 -113 -269 -118 -264
-4 4 -62 129 -128 277 -67 149 -126 274 -131 280 -12 12 -98 -10 -119 -31 -12
-12 -10 -14 23 -14 46 0 46 21 4 -343 -18 -153 -30 -281 -27 -285 9 -12 120
-15 120 -3 0 6 -8 11 -18 11 -10 0 -26 6 -36 13 -17 13 -17 24 10 271 20 187
30 253 37 240 32 -57 218 -482 223 -509 6 -33 30 -53 44 -38 4 4 58 138 121
297 62 159 114 285 116 280 5 -17 53 -509 53 -545 l0 -36 58 8 c31 5 65 6 75
3 9 -3 17 -1 17 5 0 6 -6 11 -14 11 -8 0 -24 8 -36 18 -21 17 -25 40 -56 337
-19 175 -35 319 -37 321 -2 2 -19 -4 -38 -14z"/>
<path d="M3936 1923 c-35 -4 -38 -6 -33 -31 9 -45 37 -103 47 -97 5 3 6 21 3
41 -8 48 4 54 105 54 l82 0 0 -330 0 -330 76 0 c47 0 73 4 69 10 -3 6 -12 10
-20 10 -8 0 -21 10 -29 22 -14 19 -16 67 -16 321 l0 298 93 -3 92 -3 5 -50 c6
-55 9 -53 38 23 15 37 17 54 9 59 -13 8 -461 13 -521 6z"/>
<path d="M5430 1918 c-93 -10 -119 -22 -71 -33 17 -4 36 -15 41 -26 7 -12 10
-130 8 -324 l-3 -305 78 0 c50 0 76 4 72 10 -3 6 -12 10 -19 10 -7 0 -20 8
-30 18 -15 17 -16 50 -14 318 3 340 -6 312 96 299 71 -9 102 -37 102 -95 0
-86 -43 -138 -133 -161 -26 -6 -47 -13 -47 -16 0 -3 207 -297 260 -369 14 -19
19 -19 85 -9 l70 12 -45 20 c-56 26 -67 37 -182 204 l-95 135 54 29 c79 41
108 84 108 158 0 53 -3 61 -31 87 -54 47 -131 57 -304 38z"/>
<path d="M6200 1924 c-19 -2 -72 -7 -117 -10 -46 -3 -83 -10 -83 -15 0 -5 9
-9 20 -9 11 0 29 -9 40 -20 19 -19 20 -33 20 -318 0 -218 3 -301 12 -310 17
-17 332 -17 345 1 16 19 53 124 46 130 -3 3 -19 -13 -37 -36 -40 -53 -77 -66
-193 -66 l-93 -1 0 160 0 160 120 0 c108 0 120 2 130 19 5 11 10 22 10 25 0 5
-164 -1 -227 -9 l-33 -4 0 135 0 134 125 0 125 0 0 -50 c0 -27 4 -50 9 -50 8
0 56 119 49 125 -5 6 -231 13 -268 9z"/>
<path d="M1200 1908 l-35 -11 34 -11 c20 -7 38 -22 43 -36 5 -13 8 -158 6
-322 l-3 -298 78 0 c50 0 76 4 72 10 -3 6 -12 10 -20 10 -7 0 -21 7 -29 16
-14 13 -16 55 -16 303 0 159 -3 303 -6 320 -6 29 -9 31 -48 30 -22 0 -57 -5
-76 -11z"/>
<path d="M1533 1913 c-28 -5 -30 -23 -4 -23 11 0 27 -7 35 -16 14 -13 16 -56
16 -314 0 -164 3 -305 6 -314 5 -12 21 -16 75 -16 73 0 93 14 33 23 -66 11
-64 2 -63 301 0 214 3 267 12 252 12 -19 129 -173 327 -428 58 -75 111 -139
118 -142 9 -4 12 67 12 339 l0 345 -39 0 c-51 0 -101 -10 -101 -21 0 -5 15 -9
34 -9 65 0 66 -4 66 -278 l0 -247 -28 47 c-15 25 -108 150 -207 277 l-180 231
-45 -2 c-25 0 -55 -3 -67 -5z"/>
<path d="M2302 1910 c-41 -9 -53 -20 -24 -20 12 0 31 -9 42 -20 20 -20 20 -31
18 -330 l-3 -310 78 0 c50 0 76 4 72 10 -3 6 -12 10 -19 10 -7 0 -20 8 -29 18
-15 16 -17 54 -17 319 0 166 -3 308 -6 317 -7 17 -54 20 -112 6z"/>
<path d="M2823 1569 c-66 -19 -33 -29 95 -29 139 0 172 5 172 26 0 11 -24 14
-117 13 -65 0 -133 -5 -150 -10z"/>
<path d="M2741 973 l-23 -5 21 -14 c20 -14 21 -24 21 -187 l0 -172 35 -1 c32
0 34 1 20 16 -11 13 -15 54 -17 190 -3 188 -2 184 -57 173z"/>
<path d="M3501 973 l-23 -5 21 -14 c20 -14 21 -24 21 -187 l0 -172 36 -1 c31
0 34 1 20 11 -13 10 -16 31 -16 102 0 83 2 90 23 101 47 23 65 24 86 3 18 -18
21 -34 21 -118 l0 -98 30 0 c32 0 40 9 15 19 -12 4 -15 25 -15 101 0 82 -3 98
-20 115 -24 24 -58 25 -105 6 l-35 -15 0 64 c0 35 -3 70 -6 79 -6 16 -10 17
-53 9z"/>
<path d="M4281 937 c-14 -6 -27 -19 -29 -27 -4 -12 -2 -13 9 -4 26 21 64 24
87 8 42 -29 17 -95 -43 -110 -37 -9 -31 -24 10 -24 62 0 92 -53 64 -114 -13
-28 -64 -56 -103 -56 -14 0 -26 -4 -26 -10 0 -13 31 -13 86 1 102 26 129 140
44 184 l-30 16 24 22 c39 34 43 71 12 101 -28 29 -66 33 -105 13z"/>
<path d="M2246 931 c-3 -5 3 -11 14 -14 19 -5 20 -14 20 -161 l0 -156 93 0 94
0 10 35 c13 41 8 44 -19 10 -17 -22 -27 -25 -79 -25 l-59 0 0 75 0 74 62 3
c42 2 63 7 66 17 4 12 -7 13 -62 8 l-66 -6 0 64 0 65 64 0 c59 0 65 -2 68 -22
3 -20 5 -19 15 10 l12 32 -114 0 c-63 0 -116 -4 -119 -9z"/>
<path d="M4065 931 c-3 -5 5 -11 17 -13 23 -3 23 -6 26 -148 2 -136 1 -145
-18 -160 -19 -14 -16 -15 41 -15 55 0 59 1 40 14 -20 13 -21 22 -21 172 l0
159 -39 0 c-22 0 -42 -4 -46 -9z"/>
<path d="M2555 840 c-24 -6 -27 -8 -12 -14 15 -7 17 -23 17 -120 l0 -112 35 0
c36 0 46 10 20 20 -11 4 -15 23 -15 78 0 64 3 75 27 100 32 34 39 35 48 6 6
-22 7 -22 15 6 5 16 7 33 4 37 -6 10 -53 -7 -76 -28 -17 -15 -18 -14 -18 5 0
26 -8 30 -45 22z"/>
<path d="M2890 840 c-17 -5 -19 -8 -7 -9 26 -1 21 -11 -27 -61 l-45 -45 51
-66 c43 -56 54 -65 77 -61 l26 4 -42 44 c-23 24 -50 55 -59 69 -17 26 -17 27
30 74 54 55 53 69 -4 51z"/>
<path d="M3075 836 c-16 -7 -39 -23 -49 -35 -24 -27 -33 -110 -16 -151 23 -55
99 -76 160 -45 89 46 77 208 -17 234 -46 13 -41 13 -78 -3z m94 -42 c29 -37
30 -135 1 -164 -25 -25 -71 -26 -101 -1 -30 24 -40 128 -15 166 24 36 86 35
115 -1z"/>
<path d="M3332 835 c-63 -27 -55 -80 18 -128 52 -33 65 -53 54 -81 -5 -13 -16
-16 -47 -14 -34 2 -42 7 -48 28 l-6 25 -12 -29 c-6 -16 -9 -31 -6 -34 2 -3 27
-7 55 -10 70 -6 102 15 98 66 -3 32 -10 41 -52 69 -81 53 -88 93 -17 93 36 0
40 -3 43 -27 l4 -28 8 28 c5 16 5 32 0 36 -18 17 -60 19 -92 6z"/>
<path d="M3856 836 c-45 -17 -76 -43 -36 -31 85 25 120 14 120 -35 0 -25 -5
-29 -49 -40 -77 -18 -118 -81 -81 -125 16 -20 79 -19 108 1 18 12 22 13 22 1
0 -10 9 -12 33 -9 17 3 26 7 20 9 -9 3 -13 32 -13 98 0 74 -4 97 -17 113 -24
29 -60 34 -107 18z m84 -155 c0 -30 -5 -42 -25 -55 -33 -22 -62 -20 -75 5 -20
36 28 86 83 88 13 1 17 -7 17 -38z"/>
<path d="M5804 543 c-672 -3 -753 -5 -758 -19 -3 -8 -1 -24 4 -35 11 -19 29
-19 788 -17 l777 3 0 35 c0 32 -2 35 -30 35 -16 0 -368 -1 -781 -2z"/>
<path d="M0 505 l0 -35 833 2 832 3 3 33 3 32 -835 0 -836 0 0 -35z"/>
</g>
</svg>
